Coordinates
version=1
nRows=10
nColumns=46
inDegrees=yes

Units are S.I. units (second, meters, Newtons, ...)
Angles are in degrees.

endheader
time	pelvis_tilt	pelvis_list	pelvis_rotation	pelvis_tx	pelvis_ty	pelvis_tz	bb_angle	bb_tx	bb_ty	bb_tz	hip_flexion_r	hip_adduction_r	hip_rotation_r	knee_angle_r	knee_angle_r_beta	ankle_angle_r	subtalar_angle_r	mtp_angle_r	crank_angle_r	hip_flexion_l	hip_adduction_l	hip_rotation_l	knee_angle_l	knee_angle_l_beta	ankle_angle_l	subtalar_angle_l	mtp_angle_l	crank_angle_l	lumbar_extension	lumbar_bending	lumbar_rotation	arm_flex_r	arm_add_r	arm_rot_r	elbow_flex_r	pro_sup_r	wrist_flex_r	wrist_dev_r	arm_flex_l	arm_add_l	arm_rot_l	elbow_flex_l	pro_sup_l	wrist_flex_l	wrist_dev_l
      0.00500000	    -23.60619331	      6.35248165	      2.35706181	      0.14024751	      1.10812189	     -0.26547404	      0.00000000	      0.50000000	      0.00000000	      0.25000000	     51.72920340	     -9.33903808	      2.06725396	     51.16117577	      0.89293097	      3.84300194	     -9.68995920	      0.00000000	      0.00000000	     96.40613384	     -7.95767168	     -4.21000274	    102.38782322	      1.78700463	     20.61980329	      3.25006179	      0.00000000	      0.00000000	    -41.98599903	     -2.67319741	     -9.70527857	     77.31925796	     -3.09314540	     30.36301576	     37.14054495	     43.19545647	      0.00000000	      0.00000000	     78.26511540	    -20.38697298	     43.96728623	     39.63840019	     46.74442619	      0.00000000	      0.00000000
      0.01000000	    -23.59817564	      6.37935277	      2.38303191	      0.14030450	      1.10818058	     -0.26554342	      0.00000000	      0.50000000	      0.00000000	      0.25000000	     51.71121631	     -9.38996841	      2.05672423	     51.15133362	      0.89275919	      3.91673821	     -9.62798854	      0.00000000	      0.00000000	     96.37896512	     -7.92200158	     -4.24500885	    102.37613516	      1.78680063	     20.60789107	      3.22254508	      0.00000000	      0.00000000	    -42.04380173	     -2.67086405	     -9.71038810	     77.17267291	     -3.21287676	     30.06229689	     37.71404305	     43.25920313	      0.00000000	      0.00000000	     78.15394789	    -20.41804332	     43.56617970	     40.07267474	     46.71728100	      0.00000000	      0.00000000
      0.01500000	    -23.57123028	      6.39543180	      2.38932682	      0.14029050	      1.10824683	     -0.26557393	      0.00000000	      0.50000000	      0.00000000	      0.25000000	     51.69027786	     -9.41948467	      2.04691554	     51.15613778	      0.89284304	      3.89249776	     -9.58289441	      0.00000000	      0.00000000	     96.34575332	     -7.89814675	     -4.25929484	    102.37152415	      1.78672016	     20.60231401	      3.16333808	      0.00000000	      0.00000000	    -42.05220426	     -2.68526710	     -9.74024896	     77.30918209	     -3.33840694	     30.87046798	     37.41309674	     43.37686252	      0.00000000	      0.00000000	     78.55080712	    -20.70898032	     45.15229334	     39.68133775	     47.02251024	      0.00000000	      0.00000000
      0.02000000	    -23.57909329	      6.31347421	      2.30614374	      0.14047803	      1.10818668	     -0.26527959	      0.00000000	      0.50000000	      0.00000000	      0.25000000	     51.63709347	     -9.22384035	      2.11013450	     51.07778476	      0.89147552	      3.82910784	     -9.87666694	      0.00000000	      0.00000000	     96.37058122	     -8.05894680	     -4.15247950	    102.43017916	      1.78774388	     20.81816650	      3.76242040	      0.00000000	      0.00000000	    -42.09379853	     -2.62553744	     -9.72710356	     76.89426037	     -3.18718999	     29.82514433	     38.65933435	     43.35676033	      0.00000000	      0.00000000	     77.91277874	    -20.68985706	     43.04457609	     40.63125004	     46.57025223	      0.00000000	      0.00000000
      0.02500000	    -23.64955212	      6.38281501	      2.39567874	      0.14036328	      1.10814409	     -0.26561038	      0.00000000	      0.50000000	      0.00000000	      0.25000000	     51.74153256	     -9.38472827	      2.07239192	     51.11191767	      0.89207125	      3.83204347	     -9.72859105	      0.00000000	      0.00000000	     96.43150043	     -7.89019811	     -4.26647434	    102.37562021	      1.78679165	     20.54354267	      2.99364131	      0.00000000	      0.00000000	    -41.95883591	     -2.66253086	     -9.72850802	     77.23182115	     -3.17833323	     30.37301758	     37.40473588	     43.23562827	      0.00000000	      0.00000000	     78.24664152	    -20.46963566	     44.13954687	     39.82635234	     46.62530923	      0.00000000	      0.00000000
      0.03000000	    -23.50392444	      6.44792471	      2.44479282	      0.14038742	      1.10851920	     -0.26560506	      0.00000000	      0.50000000	      0.00000000	      0.25000000	     51.56851382	     -9.48435212	      2.06118828	     51.08707789	      0.89163771	      3.86394197	     -9.66389825	      0.00000000	      0.00000000	     96.23081103	     -7.83124617	     -4.33647409	    102.34021484	      1.78617371	     20.60570788	      3.14192291	      0.00000000	      0.00000000	    -42.16024603	     -2.68708557	     -9.82061546	     77.28846277	     -3.38850781	     30.93014419	     37.59529142	     43.33421623	      0.00000000	      0.00000000	     78.60146333	    -20.75550225	     45.37789008	     39.76477441	     46.71252563	      0.00000000	      0.00000000
      0.03500000	    -23.51354811	      6.48212462	      2.48327688	      0.14044532	      1.10857688	     -0.26570645	      0.00000000	      0.50000000	      0.00000000	      0.25000000	     51.57324305	     -9.55523402	      2.04837725	     51.08671937	      0.89163146	      3.91360638	     -9.54056012	      0.00000000	      0.00000000	     96.20958675	     -7.76301269	     -4.38220836	    102.31225153	      1.78568565	     20.59369186	      2.96813280	      0.00000000	      0.00000000	    -42.21718309	     -2.69985943	     -9.78178831	     77.02725935	     -3.53406093	     30.36605805	     38.37209137	     43.38961716	      0.00000000	      0.00000000	     78.33633309	    -20.67291632	     44.53069571	     40.45103555	     46.62979730	      0.00000000	      0.00000000
      0.04000000	    -23.53623702	      6.41891997	      2.43992745	      0.14040875	      1.10843112	     -0.26561377	      0.00000000	      0.50000000	      0.00000000	      0.25000000	     51.60236737	     -9.45211191	      2.05631975	     51.08767291	      0.89164810	      3.84661629	     -9.69547746	      0.00000000	      0.00000000	     96.28164504	     -7.82670308	     -4.29334777	    102.35640541	      1.78645628	     20.60146243	      3.12668806	      0.00000000	      0.00000000	    -42.10575180	     -2.66798980	     -9.75955897	     77.26396220	     -3.31476540	     30.81493097	     37.42888403	     43.31885106	      0.00000000	      0.00000000	     78.50733973	    -20.57539634	     44.96752454	     39.68685646	     46.63558140	      0.00000000	      0.00000000
      0.04500000	    -23.53125448	      6.42683034	      2.45345160	      0.14045329	      1.10846638	     -0.26562434	      0.00000000	      0.50000000	      0.00000000	      0.25000000	     51.59312660	     -9.47280469	      2.04263274	     51.08784755	      0.89165115	      3.87059139	     -9.66527656	      0.00000000	      0.00000000	     96.26452082	     -7.80888116	     -4.30267485	    102.34963057	      1.78633804	     20.62172266	      3.12577614	      0.00000000	      0.00000000	    -42.13964331	     -2.66816494	     -9.76617262	     77.16029305	     -3.37419709	     30.55809792	     37.79865330	     43.35689944	      0.00000000	      0.00000000	     78.40259058	    -20.56035771	     44.59871458	     39.96225680	     46.61127063	      0.00000000	      0.00000000
      0.05000000	    -23.66005660	      6.34238832	      2.37060791	      0.14054261	      1.10816417	     -0.26551911	      0.00000000	      0.50000000	      0.00000000	      0.25000000	     51.72952690	     -9.31286543	      2.08706181	     51.08305698	      0.89156754	      3.81912768	     -9.73066245	      0.00000000	      0.00000000	     96.43257729	     -7.93282343	     -4.21509476	    102.39659203	      1.78715767	     20.69622211	      3.24262937	      0.00000000	      0.00000000	    -41.97250513	     -2.63316660	     -9.69209731	     77.03275286	     -3.29346678	     30.42800288	     37.96149744	     43.37966757	      0.00000000	      0.00000000	     78.22107451	    -20.58738934	     44.26368919	     40.00172224	     46.54973565	      0.00000000	      0.00000000
